HIERARCHY
ROOT Hips
{
	OFFSET 0.000000 0.000000 0.000000
	CHANNELS 6 Xposition Yposition Zposition Zrotation Yrotation Xrotation 
	JOINT LHipJoint
	{
		OFFSET 0.000000 0.000000 0.000000
		CHANNELS 3 Zrotation Yrotation Xrotation
		JOINT LeftUpLeg
		{
			OFFSET 1.363060 -1.794630 0.839290
			CHANNELS 3 Zrotation Yrotation Xrotation
			JOINT LeftLeg
			{
				OFFSET 2.448110 -6.726130 0.000000
				CHANNELS 3 Zrotation Yrotation Xrotation
				JOINT LeftFoot
				{
					OFFSET 2.562200 -7.039590 0.000000
					CHANNELS 3 Zrotation Yrotation Xrotation
					JOINT LeftToeBase
					{
						OFFSET 0.157640 -0.433110 2.322550
						CHANNELS 3 Zrotation Yrotation Xrotation
						End Site
						{
							OFFSET 0.000000 0.000000 0.000000
						}
					}
				}
			}
		}
	}
	JOINT RHipJoint
	{
		OFFSET 0.000000 0.000000 0.000000
		CHANNELS 3 Zrotation Yrotation Xrotation
		JOINT RightUpLeg
		{
			OFFSET -1.305520 -1.794630 0.839290
			CHANNELS 3 Zrotation Yrotation Xrotation
			JOINT RightLeg
			{
				OFFSET -2.542530 -6.985550 0.000000
				CHANNELS 3 Zrotation Yrotation Xrotation
				JOINT RightFoot
				{
					OFFSET -2.568260 -7.056230 0.000000
					CHANNELS 3 Zrotation Yrotation Xrotation
					JOINT RightToeBase
					{
						OFFSET -0.164730 -0.452590 2.363150
						CHANNELS 3 Zrotation Yrotation Xrotation
						End Site
						{
							OFFSET 0.000000 0.000000 0.000000
						}
					}
				}
			}
		}
	}
	JOINT LowerBack
	{
		OFFSET 0.000000 0.000000 0.000000
		CHANNELS 3 Zrotation Yrotation Xrotation
		JOINT Spine
		{
			OFFSET 0.028270 2.035590 -0.193380
			CHANNELS 3 Zrotation Yrotation Xrotation
			JOINT Spine1
			{
				OFFSET 0.056720 2.048850 -0.042750
				CHANNELS 3 Zrotation Yrotation Xrotation
				JOINT Neck
				{
					OFFSET 0.000000 0.000000 0.000000
					CHANNELS 3 Zrotation Yrotation Xrotation
					JOINT Neck1
					{
						OFFSET -0.054170 1.746240 0.172020
						CHANNELS 3 Zrotation Yrotation Xrotation
						JOINT Head
						{
							OFFSET 0.104070 1.761360 -0.123970
							CHANNELS 3 Zrotation Yrotation Xrotation
							End Site
							{
								OFFSET 0.000000 0.000000 0.000000
							}
						}
					}
				}
				JOINT LeftShoulder
				{
					OFFSET 0.000000 0.000000 0.000000
					CHANNELS 3 Zrotation Yrotation Xrotation
					JOINT LeftArm
					{
						OFFSET 3.362410 1.200890 -0.311210
						CHANNELS 3 Zrotation Yrotation Xrotation
						JOINT LeftForeArm
						{
							OFFSET 4.983000 -0.000000 -0.000000
							CHANNELS 3 Zrotation Yrotation Xrotation
							JOINT LeftHand
							{
								OFFSET 3.483560 -0.000000 -0.000000
								CHANNELS 3 Zrotation Yrotation Xrotation
								JOINT LeftFingerBase
								{
									OFFSET 0.000000 0.000000 0.000000
									CHANNELS 3 Zrotation Yrotation Xrotation
									JOINT LeftHandIndex1
									{
										OFFSET 0.715260 -0.000000 -0.000000
										CHANNELS 3 Zrotation Yrotation Xrotation
										End Site
										{
											OFFSET 0.000000 0.000000 0.000000
										}
									}
								}
								JOINT LThumb
								{
									OFFSET 0.000000 0.000000 0.000000
									CHANNELS 3 Zrotation Yrotation Xrotation
									End Site
									{
										OFFSET 0.000000 0.000000 0.000000
									}
								}
							}
						}
					}
				}
				JOINT RightShoulder
				{
					OFFSET 0.000000 0.000000 0.000000
					CHANNELS 3 Zrotation Yrotation Xrotation
					JOINT RightArm
					{
						OFFSET -3.136600 1.374050 -0.404650
						CHANNELS 3 Zrotation Yrotation Xrotation
						JOINT RightForeArm
						{
							OFFSET -5.241900 -0.000000 -0.000000
							CHANNELS 3 Zrotation Yrotation Xrotation
							JOINT RightHand
							{
								OFFSET -3.444170 -0.000000 -0.000000
								CHANNELS 3 Zrotation Yrotation Xrotation
								JOINT RightFingerBase
								{
									OFFSET 0.000000 0.000000 0.000000
									CHANNELS 3 Zrotation Yrotation Xrotation
									JOINT RightHandIndex1
									{
										OFFSET -0.622530 -0.000000 -0.000000
										CHANNELS 3 Zrotation Yrotation Xrotation
										End Site
										{
											OFFSET 0.000000 0.000000 0.000000
										}
									}
								}
								JOINT RThumb
								{
									OFFSET 0.000000 0.000000 0.000000
									CHANNELS 3 Zrotation Yrotation Xrotation
									End Site
									{
										OFFSET 0.000000 0.000000 0.000000
									}
								}
							}
						}
					}
				}
			}
		}
	}
}
MOTION
Frames: 4
Frame Time: 0.008333
19.152665 18.521717 3.349611 1.545760 1.415089 8.499647 -15.952318 2.851951 2.005133 1.318734 4.988704 -28.956936 -33.749469 -26.585212 65.482039 -14.863018 39.934059 -28.174037 -0.102419 -1.729004 0.810152 12.651679 -2.078825 2.712593 -5.172495 0.005941 -28.652281 37.636674 23.887685 69.667883 24.663745 -46.726686 -48.146394 0.085766 0.289550 -0.069472 3.308603 -1.136118 9.487216 0.815712 -1.127295 -3.750880 -3.266654 -1.194251 -0.124734 -4.545521 -3.054176 -5.421089 -1.582557 -2.971638 37.092396 -12.043744 0.977836 18.322028 -11.048707 -9.044375 3.159135 -72.791610 -18.710320 52.213633 4.741782 4.393519 -13.918428 1.393552 2.168013 -14.040111 -0.229894 -0.607311 -0.000000 0.000000 0.000000 0.000000 0.000000 0.000000 0.000000 12.274696 10.746119 3.555620 64.603095 18.023396 36.888462 -7.725519 3.799633 -13.094114 -3.071024 -0.635086 -12.342312 0.868958 0.448645 -0.000000 0.000000 0.000000 0.000000 0.000000 0.000000 0.000000
19.147512 18.579916 3.367926 1.646662 1.388651 8.637021 -15.985356 2.823199 2.101021 1.546196 4.497441 -28.480925 -33.275120 -26.788879 64.225817 -15.234980 40.196142 -27.644046 -0.162056 -1.757471 0.401821 12.699811 -2.077136 2.748592 -5.265931 0.118224 -28.411851 37.340451 24.385617 69.103361 25.042177 -46.948752 -47.896383 0.044992 0.153601 -0.146728 3.251567 -1.110385 9.398396 0.809479 -1.098964 -3.748300 -3.343106 -1.171752 -0.095836 -4.559317 -3.062803 -5.429157 -1.628082 -3.015316 37.126748 -12.082041 0.940274 18.458826 -11.201048 -8.891942 3.171817 -73.411633 -18.262818 53.686603 4.658341 4.207626 -13.017267 0.289728 0.940295 -13.187359 0.274917 -0.210687 0.000000 0.000000 0.000000 0.000000 0.000000 0.000000 0.000000 12.367541 10.634372 3.506162 65.180539 18.067228 38.216985 -7.696995 4.183136 -12.599763 -1.995508 0.570033 -11.867681 0.382990 0.087864 -0.000000 0.000000 0.000000 0.000000 0.000000 0.000000 0.000000
19.141030 18.626624 3.378833 1.692138 1.371142 8.933571 -16.029745 2.795178 2.124207 1.422958 4.664361 -28.598058 -32.266547 -26.961425 63.190350 -15.547814 39.445871 -26.732129 -0.194080 -1.763622 0.173411 12.706572 -2.039370 2.789930 -5.350860 0.444616 -28.305353 35.906845 24.326395 67.518309 24.835082 -46.446106 -46.571949 0.107770 0.365583 -0.152076 3.255010 -1.092021 9.143752 0.807113 -1.086505 -3.746393 -3.392255 -1.155542 -0.085062 -4.549899 -3.083483 -5.390667 -1.653441 -2.902645 37.423387 -11.902733 0.896718 17.563256 -11.202361 -8.896044 3.124381 -73.930244 -17.784606 54.329769 4.716143 3.712132 -12.156887 -0.011304 -0.182668 -12.308472 0.447660 0.184412 0.000000 0.000000 0.000000 0.000000 0.000000 0.000000 0.000000 12.308732 10.687048 3.494269 65.763126 18.107961 38.973926 -7.683221 4.608176 -11.650683 -1.517145 1.755346 -10.911485 0.132720 -0.310849 -0.000000 0.000000 0.000000 0.000000 0.000000 0.000000 0.000000
19.135074 18.681496 3.398303 1.788601 1.136675 9.084988 -16.109272 2.833719 2.167492 1.514968 4.482846 -28.226260 -30.870660 -26.794042 61.329423 -15.337151 39.061167 -25.356521 -0.220176 -1.613843 -0.151672 12.750589 -2.048811 2.826877 -5.608311 1.016089 -27.967077 34.552951 24.282297 65.942525 24.822197 -45.921938 -45.320089 0.039283 0.139757 -0.474238 3.151930 -1.015405 9.067774 0.795617 -1.001163 -3.748674 -3.459522 -1.075140 -0.069612 -4.539401 -3.128419 -5.427385 -1.732844 -2.895626 37.323265 -11.767025 0.819989 17.389516 -11.295987 -8.653156 3.142671 -74.381869 -17.450152 54.802944 4.713800 3.220212 -10.771974 -0.241024 -0.763872 -10.891086 0.543457 0.389110 0.000000 0.000000 0.000000 0.000000 0.000000 0.000000 0.000000 12.328552 10.575219 3.436691 66.289225 18.101251 39.552805 -7.541331 5.028427 -10.065253 -0.698691 2.596987 -9.286417 -0.207095 -0.577993 -0.000000 0.000000 0.000000 0.000000 0.000000 0.000000 0.000000
